# xmcd
# 
# Track frame offsets:
#     187
#     24390
#     52015
#     74395
#     89795
#     110902
#     136170
#     156915
#     172182
#     190287
#     208652
# 
# Disc length: 3226
# 
# Revision: 1
# Processed by: cddbd v1.5.2PL0 Copyright (c) Steve Scherf et al.
# Submitted via: BonkEnc v1.0.8
# 
DISCID=a90c980b
DTITLE=滝野聡 - TAKINO
DYEAR=1992
DGENRE=Fusion
TTITLE0=Three Views of a Secret
TTITLE1=Light Blue
TTITLE2=Cissy Strut
TTITLE3=Donna Lee
TTITLE4=D.B.B
TTITLE5=My Foolish Heart
TTITLE6=South Central's Fire
TTITLE7=So What
TTITLE8=Orchid
TTITLE9=Airgin
TTITLE10=All The Things You Are
EXTD=
EXTT0=
EXTT1=
EXTT2=
EXTT3=
EXTT4=
EXTT5=
EXTT6=
EXTT7=
EXTT8=
EXTT9=
EXTT10=
PLAYORDER=
